<svg xmlns="http://www.w3.org/2000/svg" viewBox="0 0 160 160" role="img" aria-labelledby="title">
  <title id="title">Female avatar</title>
  <defs>
    <linearGradient id="bg" x1="0" y1="0" x2="1" y2="1">
      <stop offset="0" stop-color="#fde7ed"/>
      <stop offset="1" stop-color="#f8cfd9"/>
    </linearGradient>
  </defs>
  <circle cx="80" cy="80" r="80" fill="url(#bg)"/>
  <path d="M43 76c0-29 17-49 38-49s37 20 37 49c0 25-12 42-37 42S43 101 43 76Z" fill="#2b171d"/>
  <circle cx="80" cy="68" r="30" fill="#f0c7ab"/>
  <path d="M51 70c6-28 18-42 31-42 17 0 27 13 29 42-18-1-37-7-49-19-4 6-7 12-11 19Z" fill="#241217"/>
  <path d="M49 136c8-23 20-34 31-34s24 11 32 34c-9 7-20 11-32 11s-22-4-31-11Z" fill="#fff"/>
  <path d="M60 134c5-15 12-22 20-22s16 7 21 22c-6 4-13 6-21 6s-14-2-20-6Z" fill="#8f0f2b"/>
  <circle cx="68" cy="69" r="3" fill="#28161b"/>
  <circle cx="92" cy="69" r="3" fill="#28161b"/>
  <path d="M70 84c6 5 14 5 20 0" fill="none" stroke="#8b4a4f" stroke-width="4" stroke-linecap="round"/>
</svg>
