<svg xmlns="http://www.w3.org/2000/svg" viewBox="0 0 900 720" role="img" aria-labelledby="title">
  <title id="title">Cupcake collection</title>
  <rect width="900" height="720" fill="#fff7f2"/>
  <circle cx="700" cy="120" r="110" fill="#ffe6d7"/>
  <ellipse cx="450" cy="555" rx="240" ry="50" fill="#e9b49b" opacity="0.32"/>
  <g transform="translate(170 210)">
    <path d="M60 220h120l-15 110H75z" fill="#b46d53"/>
    <path d="M26 180c0-48 38-86 86-86s86 38 86 86" fill="#ffd3de"/>
    <circle cx="112" cy="62" r="16" fill="#ffd36c"/>
  </g>
  <g transform="translate(380 185)">
    <path d="M60 245h120l-15 110H75z" fill="#8f4d43"/>
    <path d="M26 205c0-48 38-86 86-86s86 38 86 86" fill="#fff4f6"/>
    <circle cx="112" cy="88" r="16" fill="#f29db1"/>
  </g>
  <g transform="translate(590 220)">
    <path d="M60 210h120l-15 110H75z" fill="#ca8b6d"/>
    <path d="M26 170c0-48 38-86 86-86s86 38 86 86" fill="#f7c8d5"/>
    <circle cx="112" cy="50" r="16" fill="#ffd36c"/>
  </g>
</svg>
